<svg width="33" height="32" viewBox="0 0 33 32" fill="none" xmlns="http://www.w3.org/2000/svg">
<path d="M29.5738 13.3887H28.4998V13.3334H16.4998V18.6667H24.0352C22.9358 21.7714 19.9818 24.0001 16.4998 24.0001C12.0818 24.0001 8.49984 20.4181 8.49984 16.0001C8.49984 11.5821 12.0818 8.00008 16.4998 8.00008C18.5392 8.00008 20.3945 8.76941 21.8072 10.0261L25.5785 6.25475C23.1972 4.03541 20.0118 2.66675 16.4998 2.66675C9.1365 2.66675 3.1665 8.63675 3.1665 16.0001C3.1665 23.3634 9.1365 29.3334 16.4998 29.3334C23.8632 29.3334 29.8332 23.3634 29.8332 16.0001C29.8332 15.1061 29.7412 14.2334 29.5738 13.3887Z" fill="#FFC107"/>
<path d="M4.7041 9.79408L9.08477 13.0067C10.2701 10.0721 13.1408 8.00008 16.5001 8.00008C18.5394 8.00008 20.3948 8.76941 21.8074 10.0261L25.5788 6.25475C23.1974 4.03541 20.0121 2.66675 16.5001 2.66675C11.3788 2.66675 6.93743 5.55808 4.7041 9.79408Z" fill="#FF3D00"/>
<path d="M16.4999 29.3333C19.9439 29.3333 23.0732 28.0153 25.4392 25.872L21.3125 22.38C19.9291 23.4327 18.2383 24.0018 16.4999 24C13.0319 24 10.0872 21.7886 8.97788 18.7026L4.62988 22.0526C6.83655 26.3706 11.3179 29.3333 16.4999 29.3333Z" fill="#4CAF50"/>
<path d="M29.574 13.3886H28.5V13.3333H16.5V18.6666H24.0353C23.5095 20.1442 22.5622 21.4354 21.3107 22.3806L21.3127 22.3793L25.4393 25.8713C25.1473 26.1366 29.8333 22.6666 29.8333 15.9999C29.8333 15.1059 29.7413 14.2333 29.574 13.3886Z" fill="#1976D2"/>
</svg>
